<mxfile host="app.diagrams.net" modified="2024-05-30T22:03:44.979Z" agent="Mozilla/5.0 (Macintosh; Intel Mac OS X 10_15_7) AppleWebKit/537.36 (KHTML, like Gecko) Chrome/125.0.0.0 Safari/537.36" version="24.4.10" etag="WkpZWHR_e2wvDI2fm6IA" type="github">
  <diagram name="Page-1" id="VWHRpZx6jSLUwkXzRZ6T">
    <mxGraphModel>
      <root>
        <mxCell id="0" />
        <mxCell id="1" parent="0" />
      </root>
    </mxGraphModel>
  </diagram>
</mxfile>
